<mxfile host="Electron" agent="Mozilla/5.0 (Windows NT 10.0; Win64; x64) AppleWebKit/537.36 (KHTML, like Gecko) draw.io/27.0.9 Chrome/134.0.6998.205 Electron/35.4.0 Safari/537.36" version="27.0.9">
  <diagram name="Page-1" id="jLcKnuSJv7wvCJBZE9c4">
    <mxGraphModel dx="2180" dy="2528" grid="1" gridSize="10" guides="1" tooltips="1" connect="1" arrows="1" fold="1" page="1" pageScale="1" pageWidth="850" pageHeight="1100" math="0" shadow="0">
      <root>
        <mxCell id="0" />
        <mxCell id="1" parent="0" />
        <mxCell id="b14hFXvI6izHl6SAy26Z-2" value="&lt;div style=&quot;color: rgb(59, 59, 59); background-color: rgb(255, 255, 255); font-family: Consolas, &amp;quot;Courier New&amp;quot;, monospace; font-size: 14px; line-height: 19px; white-space: pre;&quot;&gt;&lt;span style=&quot;color: rgb(38, 127, 153); text-align: left;&quot;&gt;sync_fifo&lt;/span&gt;&lt;/div&gt;" style="rounded=0;whiteSpace=wrap;html=1;" vertex="1" parent="1">
          <mxGeometry x="330" y="-700" width="200" height="270" as="geometry" />
        </mxCell>
        <mxCell id="b14hFXvI6izHl6SAy26Z-3" value="" style="endArrow=classic;html=1;rounded=0;" edge="1" parent="1">
          <mxGeometry width="50" height="50" relative="1" as="geometry">
            <mxPoint x="160" y="-670" as="sourcePoint" />
            <mxPoint x="330" y="-670" as="targetPoint" />
          </mxGeometry>
        </mxCell>
        <mxCell id="b14hFXvI6izHl6SAy26Z-4" value="&lt;span style=&quot;color: rgb(0, 16, 128); font-family: Consolas, &amp;quot;Courier New&amp;quot;, monospace; font-size: 14px; text-align: left; white-space-collapse: preserve;&quot;&gt;clk&lt;/span&gt;" style="edgeLabel;html=1;align=center;verticalAlign=middle;resizable=0;points=[];" vertex="1" connectable="0" parent="b14hFXvI6izHl6SAy26Z-3">
          <mxGeometry x="0.0471" y="2" relative="1" as="geometry">
            <mxPoint as="offset" />
          </mxGeometry>
        </mxCell>
        <mxCell id="b14hFXvI6izHl6SAy26Z-5" value="" style="endArrow=classic;html=1;rounded=0;" edge="1" parent="1">
          <mxGeometry width="50" height="50" relative="1" as="geometry">
            <mxPoint x="160" y="-630" as="sourcePoint" />
            <mxPoint x="330" y="-630" as="targetPoint" />
          </mxGeometry>
        </mxCell>
        <mxCell id="b14hFXvI6izHl6SAy26Z-6" value="&lt;div style=&quot;text-align: left;&quot;&gt;&lt;span style=&quot;background-color: light-dark(#ffffff, var(--ge-dark-color, #121212)); font-size: 14px; white-space-collapse: preserve;&quot;&gt;&lt;font face=&quot;Consolas, Courier New, monospace&quot; color=&quot;#001080&quot;&gt;rst_n&lt;/font&gt;&lt;/span&gt;&lt;/div&gt;" style="edgeLabel;html=1;align=center;verticalAlign=middle;resizable=0;points=[];" vertex="1" connectable="0" parent="b14hFXvI6izHl6SAy26Z-5">
          <mxGeometry x="0.0235" y="3" relative="1" as="geometry">
            <mxPoint as="offset" />
          </mxGeometry>
        </mxCell>
        <mxCell id="b14hFXvI6izHl6SAy26Z-7" value="" style="endArrow=classic;html=1;rounded=0;" edge="1" parent="1">
          <mxGeometry width="50" height="50" relative="1" as="geometry">
            <mxPoint x="160" y="-590" as="sourcePoint" />
            <mxPoint x="330" y="-590" as="targetPoint" />
          </mxGeometry>
        </mxCell>
        <mxCell id="b14hFXvI6izHl6SAy26Z-8" value="&lt;div style=&quot;text-align: left;&quot;&gt;&lt;span style=&quot;background-color: light-dark(#ffffff, var(--ge-dark-color, #121212)); font-size: 14px; white-space-collapse: preserve;&quot;&gt;&lt;font face=&quot;Consolas, Courier New, monospace&quot; color=&quot;#001080&quot;&gt;wr_en&lt;/font&gt;&lt;/span&gt;&lt;/div&gt;" style="edgeLabel;html=1;align=center;verticalAlign=middle;resizable=0;points=[];" vertex="1" connectable="0" parent="b14hFXvI6izHl6SAy26Z-7">
          <mxGeometry x="0.0118" y="2" relative="1" as="geometry">
            <mxPoint as="offset" />
          </mxGeometry>
        </mxCell>
        <mxCell id="b14hFXvI6izHl6SAy26Z-9" value="" style="endArrow=classic;html=1;rounded=0;" edge="1" parent="1">
          <mxGeometry width="50" height="50" relative="1" as="geometry">
            <mxPoint x="160" y="-550" as="sourcePoint" />
            <mxPoint x="330" y="-550" as="targetPoint" />
          </mxGeometry>
        </mxCell>
        <mxCell id="b14hFXvI6izHl6SAy26Z-10" value="&lt;div style=&quot;text-align: left;&quot;&gt;&lt;span style=&quot;background-color: light-dark(#ffffff, var(--ge-dark-color, #121212)); font-size: 14px; white-space-collapse: preserve;&quot;&gt;&lt;font face=&quot;Consolas, Courier New, monospace&quot; color=&quot;#001080&quot;&gt;rd_en&lt;/font&gt;&lt;/span&gt;&lt;/div&gt;" style="edgeLabel;html=1;align=center;verticalAlign=middle;resizable=0;points=[];" vertex="1" connectable="0" parent="b14hFXvI6izHl6SAy26Z-9">
          <mxGeometry x="0.0353" y="3" relative="1" as="geometry">
            <mxPoint as="offset" />
          </mxGeometry>
        </mxCell>
        <mxCell id="b14hFXvI6izHl6SAy26Z-11" value="" style="endArrow=classic;html=1;rounded=0;" edge="1" parent="1">
          <mxGeometry width="50" height="50" relative="1" as="geometry">
            <mxPoint x="160" y="-510" as="sourcePoint" />
            <mxPoint x="330" y="-510" as="targetPoint" />
          </mxGeometry>
        </mxCell>
        <mxCell id="b14hFXvI6izHl6SAy26Z-12" value="&lt;div style=&quot;text-align: left;&quot;&gt;&lt;span style=&quot;background-color: light-dark(#ffffff, var(--ge-dark-color, #121212)); font-size: 14px; white-space-collapse: preserve;&quot;&gt;&lt;font face=&quot;Consolas, Courier New, monospace&quot; color=&quot;#001080&quot;&gt;wr_data&lt;/font&gt;&lt;/span&gt;&lt;/div&gt;" style="edgeLabel;html=1;align=center;verticalAlign=middle;resizable=0;points=[];" vertex="1" connectable="0" parent="b14hFXvI6izHl6SAy26Z-11">
          <mxGeometry x="0.0706" y="-2" relative="1" as="geometry">
            <mxPoint as="offset" />
          </mxGeometry>
        </mxCell>
        <mxCell id="b14hFXvI6izHl6SAy26Z-15" value="" style="endArrow=classic;html=1;rounded=0;" edge="1" parent="1">
          <mxGeometry width="50" height="50" relative="1" as="geometry">
            <mxPoint x="530" y="-670" as="sourcePoint" />
            <mxPoint x="700" y="-670" as="targetPoint" />
          </mxGeometry>
        </mxCell>
        <mxCell id="b14hFXvI6izHl6SAy26Z-16" value="&lt;span style=&quot;color: rgb(0, 16, 128); font-family: Consolas, &amp;quot;Courier New&amp;quot;, monospace; font-size: 14px; text-align: left; white-space-collapse: preserve;&quot;&gt;rd_data&lt;/span&gt;" style="edgeLabel;html=1;align=center;verticalAlign=middle;resizable=0;points=[];" vertex="1" connectable="0" parent="b14hFXvI6izHl6SAy26Z-15">
          <mxGeometry x="-0.0471" y="1" relative="1" as="geometry">
            <mxPoint y="-9" as="offset" />
          </mxGeometry>
        </mxCell>
        <mxCell id="b14hFXvI6izHl6SAy26Z-17" value="" style="endArrow=classic;html=1;rounded=0;" edge="1" parent="1">
          <mxGeometry width="50" height="50" relative="1" as="geometry">
            <mxPoint x="530" y="-630" as="sourcePoint" />
            <mxPoint x="700" y="-630" as="targetPoint" />
          </mxGeometry>
        </mxCell>
        <mxCell id="b14hFXvI6izHl6SAy26Z-18" value="&lt;div style=&quot;text-align: left;&quot;&gt;&lt;span style=&quot;background-color: light-dark(#ffffff, var(--ge-dark-color, #121212)); font-size: 14px; white-space-collapse: preserve;&quot;&gt;&lt;font face=&quot;Consolas, Courier New, monospace&quot; color=&quot;#001080&quot;&gt;full&lt;/font&gt;&lt;/span&gt;&lt;/div&gt;" style="edgeLabel;html=1;align=center;verticalAlign=middle;resizable=0;points=[];" vertex="1" connectable="0" parent="b14hFXvI6izHl6SAy26Z-17">
          <mxGeometry x="-0.0824" y="1" relative="1" as="geometry">
            <mxPoint y="-9" as="offset" />
          </mxGeometry>
        </mxCell>
        <mxCell id="b14hFXvI6izHl6SAy26Z-19" value="" style="endArrow=classic;html=1;rounded=0;" edge="1" parent="1">
          <mxGeometry width="50" height="50" relative="1" as="geometry">
            <mxPoint x="530" y="-590" as="sourcePoint" />
            <mxPoint x="700" y="-590" as="targetPoint" />
          </mxGeometry>
        </mxCell>
        <mxCell id="b14hFXvI6izHl6SAy26Z-20" value="&lt;div style=&quot;text-align: left;&quot;&gt;&lt;span style=&quot;background-color: light-dark(#ffffff, var(--ge-dark-color, #121212)); font-size: 14px; white-space-collapse: preserve;&quot;&gt;&lt;font face=&quot;Consolas, Courier New, monospace&quot; color=&quot;#001080&quot;&gt;count&lt;/font&gt;&lt;/span&gt;&lt;/div&gt;" style="edgeLabel;html=1;align=center;verticalAlign=middle;resizable=0;points=[];" vertex="1" connectable="0" parent="b14hFXvI6izHl6SAy26Z-19">
          <mxGeometry x="-0.0941" y="3" relative="1" as="geometry">
            <mxPoint as="offset" />
          </mxGeometry>
        </mxCell>
        <mxCell id="b14hFXvI6izHl6SAy26Z-21" value="" style="endArrow=classic;html=1;rounded=0;" edge="1" parent="1">
          <mxGeometry width="50" height="50" relative="1" as="geometry">
            <mxPoint x="530" y="-550" as="sourcePoint" />
            <mxPoint x="700" y="-550" as="targetPoint" />
          </mxGeometry>
        </mxCell>
        <mxCell id="b14hFXvI6izHl6SAy26Z-22" value="&lt;div style=&quot;text-align: left;&quot;&gt;&lt;span style=&quot;background-color: light-dark(#ffffff, var(--ge-dark-color, #121212)); font-size: 14px; white-space-collapse: preserve;&quot;&gt;&lt;font face=&quot;Consolas, Courier New, monospace&quot; color=&quot;#001080&quot;&gt;empty&lt;/font&gt;&lt;/span&gt;&lt;/div&gt;" style="edgeLabel;html=1;align=center;verticalAlign=middle;resizable=0;points=[];" vertex="1" connectable="0" parent="b14hFXvI6izHl6SAy26Z-21">
          <mxGeometry x="-0.0941" y="3" relative="1" as="geometry">
            <mxPoint as="offset" />
          </mxGeometry>
        </mxCell>
        <mxCell id="b14hFXvI6izHl6SAy26Z-25" value="" style="endArrow=classic;html=1;rounded=0;exitX=1.005;exitY=0.848;exitDx=0;exitDy=0;exitPerimeter=0;" edge="1" parent="1">
          <mxGeometry width="50" height="50" relative="1" as="geometry">
            <mxPoint x="530" y="-504.99999999999994" as="sourcePoint" />
            <mxPoint x="699" y="-504.96" as="targetPoint" />
          </mxGeometry>
        </mxCell>
        <mxCell id="b14hFXvI6izHl6SAy26Z-26" value="&lt;span style=&quot;color: rgb(0, 16, 128); font-family: Consolas, &amp;quot;Courier New&amp;quot;, monospace; font-size: 14px; text-align: left; white-space-collapse: preserve;&quot;&gt;almost_full&lt;/span&gt;" style="edgeLabel;html=1;align=center;verticalAlign=middle;resizable=0;points=[];" vertex="1" connectable="0" parent="b14hFXvI6izHl6SAy26Z-25">
          <mxGeometry x="-0.1124" y="-2" relative="1" as="geometry">
            <mxPoint y="-12" as="offset" />
          </mxGeometry>
        </mxCell>
        <mxCell id="b14hFXvI6izHl6SAy26Z-27" value="" style="endArrow=classic;html=1;rounded=0;exitX=1.005;exitY=0.848;exitDx=0;exitDy=0;exitPerimeter=0;" edge="1" parent="1">
          <mxGeometry width="50" height="50" relative="1" as="geometry">
            <mxPoint x="530" y="-465" as="sourcePoint" />
            <mxPoint x="699" y="-465" as="targetPoint" />
          </mxGeometry>
        </mxCell>
        <mxCell id="b14hFXvI6izHl6SAy26Z-28" value="&lt;span style=&quot;color: rgb(0, 16, 128); font-family: Consolas, &amp;quot;Courier New&amp;quot;, monospace; font-size: 14px; text-align: left; white-space-collapse: preserve;&quot;&gt;almost_empty&lt;/span&gt;" style="edgeLabel;html=1;align=center;verticalAlign=middle;resizable=0;points=[];" vertex="1" connectable="0" parent="b14hFXvI6izHl6SAy26Z-27">
          <mxGeometry x="-0.0414" y="2" relative="1" as="geometry">
            <mxPoint y="-8" as="offset" />
          </mxGeometry>
        </mxCell>
        <mxCell id="b14hFXvI6izHl6SAy26Z-33" value="" style="endArrow=none;html=1;rounded=0;" edge="1" parent="1">
          <mxGeometry width="50" height="50" relative="1" as="geometry">
            <mxPoint x="660" y="-660" as="sourcePoint" />
            <mxPoint x="680" y="-680" as="targetPoint" />
          </mxGeometry>
        </mxCell>
        <mxCell id="b14hFXvI6izHl6SAy26Z-34" value="8" style="edgeLabel;html=1;align=center;verticalAlign=middle;resizable=0;points=[];labelBackgroundColor=none;" vertex="1" connectable="0" parent="b14hFXvI6izHl6SAy26Z-33">
          <mxGeometry x="0.5581" relative="1" as="geometry">
            <mxPoint x="-6" y="-4" as="offset" />
          </mxGeometry>
        </mxCell>
        <mxCell id="b14hFXvI6izHl6SAy26Z-35" value="" style="endArrow=none;html=1;rounded=0;" edge="1" parent="1">
          <mxGeometry width="50" height="50" relative="1" as="geometry">
            <mxPoint x="170" y="-500" as="sourcePoint" />
            <mxPoint x="190" y="-520" as="targetPoint" />
          </mxGeometry>
        </mxCell>
        <mxCell id="b14hFXvI6izHl6SAy26Z-36" value="8" style="edgeLabel;html=1;align=center;verticalAlign=middle;resizable=0;points=[];labelBackgroundColor=none;" vertex="1" connectable="0" parent="b14hFXvI6izHl6SAy26Z-35">
          <mxGeometry x="0.5581" relative="1" as="geometry">
            <mxPoint x="-6" y="-4" as="offset" />
          </mxGeometry>
        </mxCell>
        <mxCell id="b14hFXvI6izHl6SAy26Z-37" value="" style="endArrow=none;html=1;rounded=0;" edge="1" parent="1">
          <mxGeometry width="50" height="50" relative="1" as="geometry">
            <mxPoint x="670" y="-580" as="sourcePoint" />
            <mxPoint x="690" y="-600" as="targetPoint" />
          </mxGeometry>
        </mxCell>
        <mxCell id="b14hFXvI6izHl6SAy26Z-38" value="4" style="edgeLabel;html=1;align=center;verticalAlign=middle;resizable=0;points=[];labelBackgroundColor=none;" vertex="1" connectable="0" parent="b14hFXvI6izHl6SAy26Z-37">
          <mxGeometry x="0.5581" relative="1" as="geometry">
            <mxPoint x="-6" y="-4" as="offset" />
          </mxGeometry>
        </mxCell>
      </root>
    </mxGraphModel>
  </diagram>
</mxfile>
